<?xml version="1.0" encoding="utf-8" standalone="no"?>
<!DOCTYPE svg PUBLIC "-//W3C//DTD SVG 1.1//EN"
  "http://www.w3.org/Graphics/SVG/1.1/DTD/svg11.dtd">
<!-- Created with matplotlib (https://matplotlib.org/) -->
<svg height="345.6pt" version="1.1" viewBox="0 0 460.8 345.6" width="460.8pt" xmlns="http://www.w3.org/2000/svg" xmlns:xlink="http://www.w3.org/1999/xlink">
 <defs>
  <style type="text/css">
*{stroke-linecap:butt;stroke-linejoin:round;}
  </style>
 </defs>
 <g id="figure_1">
  <g id="patch_1">
   <path d="M 0 345.6 
L 460.8 345.6 
L 460.8 0 
L 0 0 
z
" style="fill:#ffffff;"/>
  </g>
  <g id="axes_1">
   <g id="line2d_1">
    <path clip-path="url(#pba8fb4d666)" d="M 20.945455 300.156566 
L 42.993301 294.170199 
L 65.041148 288.183832 
L 87.088995 282.197466 
L 109.136842 276.211099 
L 131.184689 270.224732 
L 153.232536 264.238365 
L 175.280383 258.251998 
L 197.32823 252.265631 
L 219.376077 246.279264 
L 241.423923 240.292897 
L 263.47177 234.306533 
L 285.519617 228.320163 
L 307.567464 222.333792 
L 329.615311 216.347429 
L 351.663158 210.361065 
L 373.711005 204.374695 
L 395.758852 198.388324 
L 417.806699 192.401961 
L 439.854545 186.415597 
" style="fill:none;stroke:#1f77b4;stroke-linecap:square;stroke-width:1.5;"/>
   </g>
   <g id="line2d_2">
    <path clip-path="url(#pba8fb4d666)" d="M 20.945455 299.777951 
L 42.993301 288.499517 
L 65.041148 277.221083 
L 87.088995 265.94265 
L 109.136842 254.664216 
L 131.184689 243.385781 
L 153.232536 232.107349 
L 175.280383 220.828915 
L 197.32823 209.55048 
L 219.376077 198.272045 
L 241.423923 186.99361 
L 263.47177 175.715182 
L 285.519617 164.436755 
L 307.567464 153.158313 
L 329.615311 141.879885 
L 351.663158 130.601443 
L 373.711005 119.323015 
L 395.758852 108.044587 
L 417.806699 96.766146 
L 439.854545 85.487718 
" style="fill:none;stroke:#ff7f0e;stroke-linecap:square;stroke-width:1.5;"/>
   </g>
   <g id="line2d_3">
    <path clip-path="url(#pba8fb4d666)" d="M 20.945455 299.732513 
L 42.993301 285.973133 
L 65.041148 272.213751 
L 87.088995 258.454368 
L 109.136842 244.694988 
L 131.184689 230.935608 
L 153.232536 217.176224 
L 175.280383 203.416847 
L 197.32823 189.657463 
L 219.376077 175.898079 
L 241.423923 162.138702 
L 263.47177 148.379325 
L 285.519617 134.619934 
L 307.567464 120.860558 
L 329.615311 107.101181 
L 351.663158 93.34179 
L 373.711005 79.582413 
L 395.758852 65.823022 
L 417.806699 52.063645 
L 439.854545 38.304268 
" style="fill:none;stroke:#2ca02c;stroke-linecap:square;stroke-width:1.5;"/>
   </g>
   <g id="line2d_4">
    <path clip-path="url(#pba8fb4d666)" d="M 20.945455 300.433834 
L 42.993301 286.612152 
L 65.041148 272.79047 
L 87.088995 258.968789 
L 109.136842 245.147107 
L 131.184689 231.325426 
L 153.232536 217.503744 
L 175.280383 203.682063 
L 197.32823 189.860381 
L 219.376077 176.0387 
L 241.423923 162.217025 
L 263.47177 148.395351 
L 285.519617 134.573663 
L 307.567464 120.751974 
L 329.615311 106.9303 
L 351.663158 93.108625 
L 373.711005 79.286937 
L 395.758852 65.465248 
L 417.806699 51.64356 
L 439.854545 37.821899 
" style="fill:none;stroke:#d62728;stroke-linecap:square;stroke-width:1.5;"/>
   </g>
   <g id="line2d_5">
    <path clip-path="url(#pba8fb4d666)" d="M 20.945455 302.749848 
L 42.993301 288.749625 
L 65.041148 274.749401 
L 87.088995 260.749179 
L 109.136842 246.748955 
L 131.184689 232.748735 
L 153.232536 218.748511 
L 175.280383 204.748287 
L 197.32823 190.748064 
L 219.376077 176.74784 
L 241.423923 162.747623 
L 263.47177 148.747392 
L 285.519617 134.747175 
L 307.567464 120.746945 
L 329.615311 106.746728 
L 351.663158 92.746497 
L 373.711005 78.74628 
L 395.758852 64.746063 
L 417.806699 50.745846 
L 439.854545 36.745629 
" style="fill:none;stroke:#9467bd;stroke-linecap:square;stroke-width:1.5;"/>
   </g>
   <g id="line2d_6">
    <defs>
     <path d="M 0 3 
C 0.795609 3 1.55874 2.683901 2.12132 2.12132 
C 2.683901 1.55874 3 0.795609 3 0 
C 3 -0.795609 2.683901 -1.55874 2.12132 -2.12132 
C 1.55874 -2.683901 0.795609 -3 0 -3 
C -0.795609 -3 -1.55874 -2.683901 -2.12132 -2.12132 
C -2.683901 -1.55874 -3 -0.795609 -3 0 
C -3 0.795609 -2.683901 1.55874 -2.12132 2.12132 
C -1.55874 2.683901 -0.795609 3 0 3 
z
" id="m74b6a585a4" style="stroke:#0000ff;"/>
    </defs>
    <g clip-path="url(#pba8fb4d666)">
     <use style="fill:#0000ff;stroke:#0000ff;" x="20.945455" xlink:href="#m74b6a585a4" y="319.6449"/>
     <use style="fill:#0000ff;stroke:#0000ff;" x="42.993301" xlink:href="#m74b6a585a4" y="265.217093"/>
     <use style="fill:#0000ff;stroke:#0000ff;" x="65.041148" xlink:href="#m74b6a585a4" y="329.890909"/>
     <use style="fill:#0000ff;stroke:#0000ff;" x="87.088995" xlink:href="#m74b6a585a4" y="235.797638"/>
     <use style="fill:#0000ff;stroke:#0000ff;" x="109.136842" xlink:href="#m74b6a585a4" y="237.543928"/>
     <use style="fill:#0000ff;stroke:#0000ff;" x="131.184689" xlink:href="#m74b6a585a4" y="250.41192"/>
     <use style="fill:#0000ff;stroke:#0000ff;" x="153.232536" xlink:href="#m74b6a585a4" y="209.546631"/>
     <use style="fill:#0000ff;stroke:#0000ff;" x="175.280383" xlink:href="#m74b6a585a4" y="189.911015"/>
     <use style="fill:#0000ff;stroke:#0000ff;" x="197.32823" xlink:href="#m74b6a585a4" y="199.982098"/>
     <use style="fill:#0000ff;stroke:#0000ff;" x="219.376077" xlink:href="#m74b6a585a4" y="236.15932"/>
     <use style="fill:#0000ff;stroke:#0000ff;" x="241.423923" xlink:href="#m74b6a585a4" y="190.109691"/>
     <use style="fill:#0000ff;stroke:#0000ff;" x="263.47177" xlink:href="#m74b6a585a4" y="109.470767"/>
     <use style="fill:#0000ff;stroke:#0000ff;" x="285.519617" xlink:href="#m74b6a585a4" y="172.384702"/>
     <use style="fill:#0000ff;stroke:#0000ff;" x="307.567464" xlink:href="#m74b6a585a4" y="132.884728"/>
     <use style="fill:#0000ff;stroke:#0000ff;" x="329.615311" xlink:href="#m74b6a585a4" y="120.678949"/>
     <use style="fill:#0000ff;stroke:#0000ff;" x="351.663158" xlink:href="#m74b6a585a4" y="103.235643"/>
     <use style="fill:#0000ff;stroke:#0000ff;" x="373.711005" xlink:href="#m74b6a585a4" y="15.709091"/>
     <use style="fill:#0000ff;stroke:#0000ff;" x="395.758852" xlink:href="#m74b6a585a4" y="29.622091"/>
     <use style="fill:#0000ff;stroke:#0000ff;" x="417.806699" xlink:href="#m74b6a585a4" y="54.059159"/>
     <use style="fill:#0000ff;stroke:#0000ff;" x="439.854545" xlink:href="#m74b6a585a4" y="48.611352"/>
    </g>
   </g>
   <g id="line2d_7">
    <path clip-path="url(#pba8fb4d666)" d="M 20.945455 300.156566 
L 42.993301 294.170199 
L 65.041148 288.183832 
L 87.088995 282.197466 
L 109.136842 276.211099 
L 131.184689 270.224732 
L 153.232536 264.238365 
L 175.280383 258.251998 
L 197.32823 252.265631 
L 219.376077 246.279264 
L 241.423923 240.292897 
L 263.47177 234.306533 
L 285.519617 228.320163 
L 307.567464 222.333792 
L 329.615311 216.347429 
L 351.663158 210.361065 
L 373.711005 204.374695 
L 395.758852 198.388324 
L 417.806699 192.401961 
L 439.854545 186.415597 
" style="fill:none;stroke:#8c564b;stroke-linecap:square;stroke-width:1.5;"/>
   </g>
   <g id="line2d_8">
    <path clip-path="url(#pba8fb4d666)" d="M 20.945455 299.777951 
L 42.993301 288.499517 
L 65.041148 277.221083 
L 87.088995 265.94265 
L 109.136842 254.664216 
L 131.184689 243.385781 
L 153.232536 232.107349 
L 175.280383 220.828915 
L 197.32823 209.55048 
L 219.376077 198.272045 
L 241.423923 186.99361 
L 263.47177 175.715182 
L 285.519617 164.436755 
L 307.567464 153.158313 
L 329.615311 141.879885 
L 351.663158 130.601443 
L 373.711005 119.323015 
L 395.758852 108.044587 
L 417.806699 96.766146 
L 439.854545 85.487718 
" style="fill:none;stroke:#e377c2;stroke-linecap:square;stroke-width:1.5;"/>
   </g>
   <g id="line2d_9">
    <path clip-path="url(#pba8fb4d666)" d="M 20.945455 299.732513 
L 42.993301 285.973133 
L 65.041148 272.213751 
L 87.088995 258.454368 
L 109.136842 244.694988 
L 131.184689 230.935608 
L 153.232536 217.176224 
L 175.280383 203.416847 
L 197.32823 189.657463 
L 219.376077 175.898079 
L 241.423923 162.138702 
L 263.47177 148.379325 
L 285.519617 134.619934 
L 307.567464 120.860558 
L 329.615311 107.101181 
L 351.663158 93.34179 
L 373.711005 79.582413 
L 395.758852 65.823022 
L 417.806699 52.063645 
L 439.854545 38.304268 
" style="fill:none;stroke:#7f7f7f;stroke-linecap:square;stroke-width:1.5;"/>
   </g>
   <g id="line2d_10">
    <path clip-path="url(#pba8fb4d666)" d="M 20.945455 300.433834 
L 42.993301 286.612152 
L 65.041148 272.79047 
L 87.088995 258.968789 
L 109.136842 245.147107 
L 131.184689 231.325426 
L 153.232536 217.503744 
L 175.280383 203.682063 
L 197.32823 189.860381 
L 219.376077 176.0387 
L 241.423923 162.217025 
L 263.47177 148.395351 
L 285.519617 134.573663 
L 307.567464 120.751974 
L 329.615311 106.9303 
L 351.663158 93.108625 
L 373.711005 79.286937 
L 395.758852 65.465248 
L 417.806699 51.64356 
L 439.854545 37.821899 
" style="fill:none;stroke:#bcbd22;stroke-linecap:square;stroke-width:1.5;"/>
   </g>
   <g id="line2d_11">
    <path clip-path="url(#pba8fb4d666)" d="M 20.945455 302.749848 
L 42.993301 288.749625 
L 65.041148 274.749401 
L 87.088995 260.749179 
L 109.136842 246.748955 
L 131.184689 232.748735 
L 153.232536 218.748511 
L 175.280383 204.748287 
L 197.32823 190.748064 
L 219.376077 176.74784 
L 241.423923 162.747623 
L 263.47177 148.747392 
L 285.519617 134.747175 
L 307.567464 120.746945 
L 329.615311 106.746728 
L 351.663158 92.746497 
L 373.711005 78.74628 
L 395.758852 64.746063 
L 417.806699 50.745846 
L 439.854545 36.745629 
" style="fill:none;stroke:#17becf;stroke-linecap:square;stroke-width:1.5;"/>
   </g>
   <g id="legend_1">
    <g id="patch_2">
     <path d="M 7 81.390625 
L 58.0875 81.390625 
Q 60.0875 81.390625 60.0875 79.390625 
L 60.0875 7 
Q 60.0875 5 58.0875 5 
L 7 5 
Q 5 5 5 7 
L 5 79.390625 
Q 5 81.390625 7 81.390625 
z
" style="fill:#ffffff;opacity:0.8;stroke:#cccccc;stroke-linejoin:miter;"/>
    </g>
    <g id="line2d_12">
     <path d="M 9 13.098437 
L 29 13.098437 
" style="fill:none;stroke:#1f77b4;stroke-linecap:square;stroke-width:1.5;"/>
    </g>
    <g id="line2d_13"/>
    <g id="text_1">
     <!-- 1 -->
     <defs>
      <path d="M 12.40625 8.296875 
L 28.515625 8.296875 
L 28.515625 63.921875 
L 10.984375 60.40625 
L 10.984375 69.390625 
L 28.421875 72.90625 
L 38.28125 72.90625 
L 38.28125 8.296875 
L 54.390625 8.296875 
L 54.390625 0 
L 12.40625 0 
z
" id="DejaVuSans-49"/>
     </defs>
     <g transform="translate(37 16.598437)scale(0.1 -0.1)">
      <use xlink:href="#DejaVuSans-49"/>
     </g>
    </g>
    <g id="line2d_14">
     <path d="M 9 27.776563 
L 29 27.776563 
" style="fill:none;stroke:#ff7f0e;stroke-linecap:square;stroke-width:1.5;"/>
    </g>
    <g id="line2d_15"/>
    <g id="text_2">
     <!-- 5 -->
     <defs>
      <path d="M 10.796875 72.90625 
L 49.515625 72.90625 
L 49.515625 64.59375 
L 19.828125 64.59375 
L 19.828125 46.734375 
Q 21.96875 47.46875 24.109375 47.828125 
Q 26.265625 48.1875 28.421875 48.1875 
Q 40.625 48.1875 47.75 41.5 
Q 54.890625 34.8125 54.890625 23.390625 
Q 54.890625 11.625 47.5625 5.09375 
Q 40.234375 -1.421875 26.90625 -1.421875 
Q 22.3125 -1.421875 17.546875 -0.640625 
Q 12.796875 0.140625 7.71875 1.703125 
L 7.71875 11.625 
Q 12.109375 9.234375 16.796875 8.0625 
Q 21.484375 6.890625 26.703125 6.890625 
Q 35.15625 6.890625 40.078125 11.328125 
Q 45.015625 15.765625 45.015625 23.390625 
Q 45.015625 31 40.078125 35.4375 
Q 35.15625 39.890625 26.703125 39.890625 
Q 22.75 39.890625 18.8125 39.015625 
Q 14.890625 38.140625 10.796875 36.28125 
z
" id="DejaVuSans-53"/>
     </defs>
     <g transform="translate(37 31.276563)scale(0.1 -0.1)">
      <use xlink:href="#DejaVuSans-53"/>
     </g>
    </g>
    <g id="line2d_16">
     <path d="M 9 42.454687 
L 29 42.454687 
" style="fill:none;stroke:#2ca02c;stroke-linecap:square;stroke-width:1.5;"/>
    </g>
    <g id="line2d_17"/>
    <g id="text_3">
     <!-- 25 -->
     <defs>
      <path d="M 19.1875 8.296875 
L 53.609375 8.296875 
L 53.609375 0 
L 7.328125 0 
L 7.328125 8.296875 
Q 12.9375 14.109375 22.625 23.890625 
Q 32.328125 33.6875 34.8125 36.53125 
Q 39.546875 41.84375 41.421875 45.53125 
Q 43.3125 49.21875 43.3125 52.78125 
Q 43.3125 58.59375 39.234375 62.25 
Q 35.15625 65.921875 28.609375 65.921875 
Q 23.96875 65.921875 18.8125 64.3125 
Q 13.671875 62.703125 7.8125 59.421875 
L 7.8125 69.390625 
Q 13.765625 71.78125 18.9375 73 
Q 24.125 74.21875 28.421875 74.21875 
Q 39.75 74.21875 46.484375 68.546875 
Q 53.21875 62.890625 53.21875 53.421875 
Q 53.21875 48.921875 51.53125 44.890625 
Q 49.859375 40.875 45.40625 35.40625 
Q 44.1875 33.984375 37.640625 27.21875 
Q 31.109375 20.453125 19.1875 8.296875 
z
" id="DejaVuSans-50"/>
     </defs>
     <g transform="translate(37 45.954687)scale(0.1 -0.1)">
      <use xlink:href="#DejaVuSans-50"/>
      <use x="63.623047" xlink:href="#DejaVuSans-53"/>
     </g>
    </g>
    <g id="line2d_18">
     <path d="M 9 57.132812 
L 29 57.132812 
" style="fill:none;stroke:#d62728;stroke-linecap:square;stroke-width:1.5;"/>
    </g>
    <g id="line2d_19"/>
    <g id="text_4">
     <!-- 125 -->
     <g transform="translate(37 60.632812)scale(0.1 -0.1)">
      <use xlink:href="#DejaVuSans-49"/>
      <use x="63.623047" xlink:href="#DejaVuSans-50"/>
      <use x="127.246094" xlink:href="#DejaVuSans-53"/>
     </g>
    </g>
    <g id="line2d_20">
     <path d="M 9 71.810937 
L 29 71.810937 
" style="fill:none;stroke:#9467bd;stroke-linecap:square;stroke-width:1.5;"/>
    </g>
    <g id="line2d_21"/>
    <g id="text_5">
     <!-- 499 -->
     <defs>
      <path d="M 37.796875 64.3125 
L 12.890625 25.390625 
L 37.796875 25.390625 
z
M 35.203125 72.90625 
L 47.609375 72.90625 
L 47.609375 25.390625 
L 58.015625 25.390625 
L 58.015625 17.1875 
L 47.609375 17.1875 
L 47.609375 0 
L 37.796875 0 
L 37.796875 17.1875 
L 4.890625 17.1875 
L 4.890625 26.703125 
z
" id="DejaVuSans-52"/>
      <path d="M 10.984375 1.515625 
L 10.984375 10.5 
Q 14.703125 8.734375 18.5 7.8125 
Q 22.3125 6.890625 25.984375 6.890625 
Q 35.75 6.890625 40.890625 13.453125 
Q 46.046875 20.015625 46.78125 33.40625 
Q 43.953125 29.203125 39.59375 26.953125 
Q 35.25 24.703125 29.984375 24.703125 
Q 19.046875 24.703125 12.671875 31.3125 
Q 6.296875 37.9375 6.296875 49.421875 
Q 6.296875 60.640625 12.9375 67.421875 
Q 19.578125 74.21875 30.609375 74.21875 
Q 43.265625 74.21875 49.921875 64.515625 
Q 56.59375 54.828125 56.59375 36.375 
Q 56.59375 19.140625 48.40625 8.859375 
Q 40.234375 -1.421875 26.421875 -1.421875 
Q 22.703125 -1.421875 18.890625 -0.6875 
Q 15.09375 0.046875 10.984375 1.515625 
z
M 30.609375 32.421875 
Q 37.25 32.421875 41.125 36.953125 
Q 45.015625 41.5 45.015625 49.421875 
Q 45.015625 57.28125 41.125 61.84375 
Q 37.25 66.40625 30.609375 66.40625 
Q 23.96875 66.40625 20.09375 61.84375 
Q 16.21875 57.28125 16.21875 49.421875 
Q 16.21875 41.5 20.09375 36.953125 
Q 23.96875 32.421875 30.609375 32.421875 
z
" id="DejaVuSans-57"/>
     </defs>
     <g transform="translate(37 75.310937)scale(0.1 -0.1)">
      <use xlink:href="#DejaVuSans-52"/>
      <use x="63.623047" xlink:href="#DejaVuSans-57"/>
      <use x="127.246094" xlink:href="#DejaVuSans-57"/>
     </g>
    </g>
   </g>
  </g>
 </g>
 <defs>
  <clipPath id="pba8fb4d666">
   <rect height="345.6" width="460.8" x="0" y="0"/>
  </clipPath>
 </defs>
</svg>
